<svg width="133" height="42" viewBox="0 0 133 42" fill="none" xmlns="http://www.w3.org/2000/svg">
<rect width="133" height="42" rx="8" fill="#3692FF"/>
<path d="M28.4688 16.5156C28.4688 18.2969 29.625 19.9688 31.7969 20.6562L30.8594 22.0156C29.3359 21.5 28.2422 20.4688 27.6406 19.1562C27.0156 20.6562 25.875 21.8359 24.25 22.4062L23.3125 21.0469C25.5938 20.25 26.7188 18.375 26.7344 16.3594V15.0156H28.4688V16.5156ZM34.6094 14.2656V17.7031H36.5781V19.1406H34.6094V22.7188H32.875V14.2656H34.6094ZM30.0156 23.0312C32.9375 23.0156 34.7344 24.0156 34.75 25.6875C34.7344 27.3906 32.9375 28.375 30.0156 28.375C27.0625 28.375 25.2344 27.3906 25.2344 25.6875C25.2344 24.0156 27.0625 23.0156 30.0156 23.0312ZM30.0156 24.3906C28.0781 24.3906 26.9688 24.8594 26.9688 25.6875C26.9688 26.5625 28.0781 27 30.0156 27C31.9531 27 33.0312 26.5625 33.0312 25.6875C33.0312 24.8594 31.9531 24.3906 30.0156 24.3906ZM50.1719 20.9531V22.3438H44.5781V23.7031H48.6094V28.2188H38.8125V23.7031H42.8594V22.3438H37.2969V20.9531H50.1719ZM48.9844 14.6875V16.0781H47.0469V18.5H48.9062V19.9062H38.5312V18.5H40.3906V16.0781H38.4531V14.6875H48.9844ZM40.5312 25.0469V26.8125H46.9219V25.0469H40.5312ZM42.125 18.5H45.2969V16.0781H42.125V18.5ZM67.8125 20.8125V22.2344H54.9219V20.8125H67.8125ZM66.3281 18.3125V19.7031H56.5V14.7188H66.25V16.125H58.2344V18.3125H66.3281ZM61.3438 23.2188C64.3906 23.2031 66.2188 24.1406 66.2344 25.7812C66.2188 27.4375 64.3906 28.375 61.3438 28.375C58.2656 28.375 56.4219 27.4375 56.4219 25.7812C56.4219 24.1406 58.2656 23.2031 61.3438 23.2188ZM61.3438 24.5469C59.2812 24.5469 58.1719 24.9844 58.1875 25.7812C58.1719 26.6094 59.2812 27.0312 61.3438 27.0312C63.3594 27.0312 64.4844 26.6094 64.5 25.7812C64.4844 24.9844 63.3594 24.5469 61.3438 24.5469ZM81.6406 21.9062V23.3125H68.7344V21.9062H74.3281V20.7344H70.375V16.9844H78.3125V15.9375H70.3281V14.5781H80.0469V18.25H72.0938V19.375H80.3281V20.7344H76.0469V21.9062H81.6406ZM80.125 24.2031V28.2969H78.375V25.5781H70.1719V24.2031H80.125ZM93.6406 14.2656V19.8906H95.8125V21.3281H93.6406V28.3906H91.9219V14.2656H93.6406ZM90.8281 16.4375V17.8281H82.5V16.4375H85.8438V14.4688H87.5781V16.4375H90.8281ZM86.7188 18.75C88.75 18.75 90.2656 20.125 90.2656 22.0781C90.2656 24.0312 88.75 25.3906 86.7188 25.3906C84.6562 25.3906 83.1406 24.0312 83.1562 22.0781C83.1406 20.125 84.6562 18.75 86.7188 18.75ZM86.7188 20.1719C85.6094 20.1719 84.8125 20.9219 84.8125 22.0781C84.8125 23.2344 85.6094 23.9688 86.7188 23.9531C87.7969 23.9688 88.5938 23.2344 88.6094 22.0781C88.5938 20.9219 87.7969 20.1719 86.7188 20.1719ZM108.203 14.2656V28.3906H106.453V14.2656H108.203ZM103.984 15.7656C103.984 19.9688 102.359 23.5469 97.4062 25.8906L96.5 24.5C100.195 22.7422 101.914 20.3516 102.219 17.1406H97.2188V15.7656H103.984Z" fill="#F3F4F6"/>
</svg>
