<svg width="40" height="40" viewBox="0 0 40 40" fill="none" xmlns="http://www.w3.org/2000/svg">
<rect x="0.5" y="0.5" width="39" height="39" rx="19.5" fill="white"/>
<rect x="0.5" y="0.5" width="39" height="39" rx="19.5" stroke="#E5E7EB"/>
<path d="M15.9375 26V24.5312L19.9375 20.6719C21.0781 19.5312 21.6719 18.8594 21.6719 17.9062C21.6719 16.8594 20.8438 16.1875 19.7344 16.1875C18.5625 16.1875 17.8125 16.9219 17.8281 18.0625H15.8906C15.875 15.9219 17.4844 14.5312 19.75 14.5312C22.0625 14.5312 23.625 15.9062 23.625 17.8125C23.625 19.0938 23 20.125 20.7812 22.2188L18.7656 24.2188V24.2969H23.7969V26H15.9375Z" fill="#6B7280"/>
</svg>
