<svg width="40" height="40" viewBox="0 0 40 40" fill="none" xmlns="http://www.w3.org/2000/svg">
<rect x="0.5" y="0.5" width="39" height="39" rx="19.5" fill="white"/>
<rect x="0.5" y="0.5" width="39" height="39" rx="19.5" stroke="#E5E7EB"/>
<path d="M19.9531 26.1562C17.6875 26.1562 16.0312 24.8125 15.9688 22.9375H17.9531C18.0156 23.8594 18.875 24.5156 19.9531 24.5156C21.2188 24.5156 22.125 23.5938 22.125 22.3438C22.125 21.0469 21.1875 20.125 19.8906 20.125C19.0156 20.1094 18.375 20.4219 18.0156 21.0938H16.125L16.8125 14.6875H23.5V16.3906H18.4844L18.1406 19.3906H18.25C18.6875 18.8906 19.5156 18.5312 20.4375 18.5312C22.5469 18.5312 24.0938 20.1094 24.0938 22.2812C24.0938 24.5469 22.3906 26.1562 19.9531 26.1562Z" fill="#6B7280"/>
</svg>
