<svg width="140" height="140" viewBox="0 0 140 140" fill="none" xmlns="http://www.w3.org/2000/svg">
<path d="M61.4617 37.3831C63.7331 43.2509 59.6884 50.2861 54.5247 52.2849C49.3609 54.2837 41.8461 51.723 39.5748 45.8551C37.3034 39.9873 40.2473 31.3273 45.4111 29.3285C52.2966 26.6632 59.1904 31.5152 61.4617 37.3831Z" fill="#D1D5DB"/>
<path d="M64.3733 37.1303C63.1489 43.3022 68.3473 49.5336 73.7785 50.6111C79.2098 51.6885 86.1697 47.869 87.3941 41.6972C88.6184 35.5253 84.2239 27.5035 78.7926 26.426C71.5504 24.9893 65.5977 30.9585 64.3733 37.1303Z" fill="#D1D5DB"/>
<path d="M117.761 82.1273C117.761 102.891 97.6167 110.61 70.1386 110.61C42.6605 110.61 22.9719 102.891 22.9719 82.1273C22.9719 57.9743 42.6605 36.5557 70.1386 36.5557C97.6167 36.5557 117.761 56.1515 117.761 82.1273Z" fill="#F3F4F6"/>
<path d="M104.83 81.8881C104.83 97.1098 90.7171 102.768 71.4657 102.768C52.2143 102.768 38.4204 97.1098 38.4204 81.8881C38.4204 64.1821 52.2143 48.4805 71.4657 48.4805C90.7171 48.4805 104.83 62.8458 104.83 81.8881Z" fill="#F9FAFB"/>
<path d="M69.6483 79.7649C69.6483 84.7986 66.5789 90.3206 62.2895 90.3206C58.0001 90.3206 51.071 86.2192 51.071 78.6999C51.071 71.6363 58.5565 69.1241 66.2915 70.414C71.0322 71.2046 69.6483 74.7311 69.6483 79.7649Z" fill="#D1D5DB"/>
<path d="M66.0608 79.2563C66.0608 80.0114 65.8451 80.6235 64.7664 80.6235C63.6877 80.6235 63.4719 80.0114 63.4719 79.2563C63.4719 78.5013 63.9034 77.8892 64.7664 77.8892C65.6293 77.8892 66.0608 78.5013 66.0608 79.2563Z" fill="#F3F4F6"/>
<path d="M82.3423 79.7649C82.3423 84.7986 85.1873 90.3206 89.163 90.3206C93.1387 90.3206 99.561 86.2192 99.561 78.6999C99.561 71.6363 92.623 69.1241 85.4537 70.414C81.0596 71.2046 82.3423 74.7311 82.3423 79.7649Z" fill="#D1D5DB"/>
<path d="M85.6678 79.2563C85.6678 80.0114 85.8678 80.6235 86.8676 80.6235C87.8674 80.6235 88.0674 80.0114 88.0674 79.2563C88.0674 78.5013 87.6675 77.8892 86.8676 77.8892C86.0678 77.8892 85.6678 78.5013 85.6678 79.2563Z" fill="#F3F4F6"/>
<path d="M71.224 87.0967C70.9766 86.7369 70.4844 86.6457 70.1246 86.8931C69.7648 87.1404 69.6737 87.6327 69.921 87.9925L71.224 87.0967ZM76.3702 85.9634L77.1178 85.7064C77.0081 85.3871 76.7078 85.1728 76.3702 85.1728C76.0326 85.1728 75.7323 85.3871 75.6225 85.7064L76.3702 85.9634ZM82.8194 87.9925C83.0667 87.6327 82.9756 87.1404 82.6158 86.8931C82.256 86.6457 81.7638 86.7369 81.5164 87.0967L82.8194 87.9925ZM69.921 87.9925C70.1587 88.3382 70.5938 88.8059 71.1783 89.1923C71.7677 89.582 72.5514 89.9163 73.4714 89.9163V88.3352C72.9419 88.3352 72.4574 88.1425 72.0503 87.8733C71.6383 87.6009 71.3486 87.278 71.224 87.0967L69.921 87.9925ZM73.4714 89.9163C74.5855 89.9163 75.425 89.1228 75.959 88.4167C76.5195 87.6755 76.9168 86.8053 77.1178 86.2204L75.6225 85.7064C75.4613 86.1755 75.1338 86.8865 74.6978 87.463C74.2353 88.0746 73.8066 88.3352 73.4714 88.3352V89.9163ZM75.6225 86.2204C75.8236 86.8053 76.2208 87.6755 76.7814 88.4167C77.3154 89.1228 78.1549 89.9163 79.269 89.9163V88.3352C78.9338 88.3352 78.5051 88.0746 78.0425 87.463C77.6066 86.8865 77.2791 86.1755 77.1178 85.7064L75.6225 86.2204ZM79.269 89.9163C80.189 89.9163 80.9727 89.582 81.5621 89.1923C82.1466 88.8059 82.5816 88.3382 82.8194 87.9925L81.5164 87.0967C81.3918 87.278 81.1021 87.6009 80.6901 87.8733C80.283 88.1425 79.7985 88.3352 79.269 88.3352V89.9163Z" fill="#D1D5DB"/>
<path d="M81.1968 85.151C81.1968 85.8921 77.8097 86.8378 76.7349 87.1192C76.5225 87.1748 76.301 87.1748 76.0886 87.1192C75.0137 86.8378 71.6267 85.8921 71.6267 85.151C71.6267 84.2701 74.2724 83.3281 76.4117 83.3281C78.5511 83.3281 81.1968 84.2701 81.1968 85.151Z" fill="#D1D5DB"/>
<path d="M77.1141 60.9648C56.7757 62.2435 51.8151 55.7512 51.071 53.0119L62.4804 46.6495L75.3779 44.2637L93.236 53.5421C92.1612 55.7512 89.6212 60.1784 77.1141 60.9648Z" fill="#D1D5DB"/>
<path fill-rule="evenodd" clip-rule="evenodd" d="M72.6058 110.676C98.6615 110.676 117.763 102.957 117.763 82.1932C117.763 56.2174 98.6615 36.6216 72.6058 36.6216C46.55 36.6216 27.8806 58.0403 27.8806 82.1932C27.8806 102.957 46.55 110.676 72.6058 110.676ZM71.5817 102.701C90.7477 102.701 104.798 97.0487 104.798 81.843C104.798 62.8207 90.7477 48.4706 71.5817 48.4706C52.4156 48.4706 38.6829 64.1556 38.6829 81.843C38.6829 97.0487 52.4156 102.701 71.5817 102.701Z" fill="#F3F4F6"/>
<path fill-rule="evenodd" clip-rule="evenodd" d="M17.2191 65.1232C20.1086 61.8877 25.3166 62.4244 27.4855 66.1811L30.6621 71.683C32.831 75.4398 30.6918 80.2183 26.4451 81.103L25.0639 81.3907C24.9849 81.4072 24.9058 81.4221 24.8266 81.4355C24.7968 81.5176 24.759 81.5975 24.7146 81.6738C23.4569 83.8358 22.8582 88.8165 29.0549 94.5809C35.0928 100.198 40.3123 100.606 42.7149 100.006C42.8854 99.9638 43.0624 99.9516 43.2332 99.9732L43.5477 99.3497C45.5013 95.4767 50.6707 94.6472 53.7381 97.7145L58.2304 102.207C61.2977 105.274 60.4682 110.444 56.5952 112.397L56.3046 112.544C56.225 112.67 56.1116 112.779 55.964 112.859C48.3144 117.011 31.1182 115.004 21.712 101.924C9.93899 85.5519 11.125 71.6316 15.767 66.6648C15.8462 66.5801 15.9363 66.5151 16.0327 66.4689C16.1116 66.3691 16.1938 66.2712 16.2794 66.1754L17.2191 65.1232Z" fill="#D1D5DB"/>
<path d="M108.264 35.4458C109.527 32.5753 110.648 32.021 112.376 31.7617C113.712 31.5566 114.811 31.2471 115.27 30.2033C115.729 29.1595 115.191 28.1301 114.171 27.6814C113.175 27.2431 111.936 27.5479 111.391 28.7236L107.619 27.0645C109.2 23.5981 112.475 23.1698 115.582 24.5367C119.022 26.0497 120.783 28.8059 119.458 31.8187C118.581 33.8114 116.971 34.5755 114.964 34.8253C113.349 35.021 112.419 35.4614 111.752 36.9796L111.606 37.3118L108.118 35.7779L108.264 35.4458ZM107.511 42.0509C106.325 41.5292 105.769 40.1525 106.325 38.953C106.813 37.7802 108.203 37.2591 109.389 37.7808C110.528 38.2816 111.107 39.6688 110.619 40.8417C110.063 42.0411 108.65 42.5518 107.511 42.0509Z" fill="#D1D5DB"/>
<path d="M119.826 43.5491C121.494 41.8278 122.445 41.7288 123.752 42.0024C124.764 42.2105 125.633 42.2809 126.24 41.655C126.846 41.0291 126.734 40.1483 126.123 39.5556C125.525 38.9767 124.557 38.8659 123.853 39.5633L121.592 37.3717C123.646 35.3082 126.107 35.8717 127.97 37.6774C130.033 39.6761 130.562 42.1192 128.811 43.9258C127.653 45.1207 126.296 45.2401 124.792 44.8856C123.583 44.5965 122.799 44.6649 121.917 45.5753L121.724 45.7745L119.633 43.7482L119.826 43.5491ZM117.53 48.0818C116.819 47.3926 116.787 46.2585 117.504 45.5468C118.165 44.836 119.3 44.8321 120.011 45.5213C120.694 46.1829 120.74 47.3309 120.079 48.0417C119.362 48.7534 118.213 48.7435 117.53 48.0818Z" fill="#D1D5DB"/>
</svg>
