<svg width="40" height="41" viewBox="0 0 40 41" fill="none" xmlns="http://www.w3.org/2000/svg">
<rect y="0.516846" width="40" height="40.1354" rx="11.1782" fill="#3692FF"/>
<path d="M19.3143 11.6911C19.8136 13.4166 18.4934 15.3179 16.9801 15.7588C15.4668 16.1996 13.3994 15.2852 12.9001 13.5598C12.4008 11.8343 13.4489 9.44351 14.9622 9.00264C16.9801 8.41476 18.815 9.9656 19.3143 11.6911Z" fill="#222327"/>
<path d="M20.1466 11.6911C19.6473 13.4166 20.9675 15.3179 22.4808 15.7588C23.9941 16.1996 26.0616 15.2852 26.5609 13.5598C27.0602 11.8343 26.012 9.44351 24.4987 9.00264C22.4808 8.41476 20.6459 9.9656 20.1466 11.6911Z" fill="#222327"/>
<path d="M29.5167 24.2967C29.5167 28.6855 25.2133 30.3169 19.3432 30.3169C13.4731 30.3169 9.26709 28.6855 9.26709 24.2967C9.26709 19.1916 13.4731 14.6644 19.3432 14.6644C25.2133 14.6644 29.5167 18.8063 29.5167 24.2967Z" fill="#F3D6DD"/>
<path d="M17.4003 23.4301C17.4003 24.8675 16.4777 26.4444 15.1884 26.4444C13.8991 26.4444 11.8164 25.2732 11.8164 23.126C11.8164 21.109 14.0664 20.3916 16.3913 20.7599C17.8163 20.9857 17.4003 21.9927 17.4003 23.4301Z" fill="#222327"/>
<path d="M16.3221 23.285C16.3221 23.5007 16.2573 23.6754 15.933 23.6754C15.6088 23.6754 15.5439 23.5007 15.5439 23.285C15.5439 23.0694 15.6736 22.8947 15.933 22.8947C16.1924 22.8947 16.3221 23.0694 16.3221 23.285Z" fill="white"/>
<path d="M21.3223 23.4302C21.3223 24.8676 22.2449 26.4445 23.5342 26.4445C24.8235 26.4445 26.9062 25.2733 26.9062 23.1261C26.9062 21.1091 24.6563 20.3917 22.3313 20.7601C20.9064 20.9858 21.3223 21.9928 21.3223 23.4302Z" fill="#222327"/>
<path d="M22.4015 23.285C22.4015 23.5007 22.4664 23.6754 22.7906 23.6754C23.1148 23.6754 23.1797 23.5007 23.1797 23.285C23.1797 23.0694 23.05 22.8947 22.7906 22.8947C22.5312 22.8947 22.4015 23.0694 22.4015 23.285Z" fill="white"/>
<path d="M17.875 25.5092C17.7964 25.3946 17.6399 25.3654 17.5253 25.4439C17.4107 25.5224 17.3815 25.6789 17.46 25.7935L17.875 25.5092ZM19.3174 25.1998L19.5554 25.1183C19.5205 25.0166 19.4249 24.9483 19.3174 24.9483C19.21 24.9483 19.1144 25.0166 19.0795 25.1183L19.3174 25.1998ZM21.1749 25.7935C21.2534 25.6789 21.2242 25.5224 21.1096 25.4439C20.995 25.3654 20.8385 25.3946 20.7599 25.5092L21.1749 25.7935ZM17.46 25.7935C17.5295 25.8949 17.6557 26.0308 17.8249 26.1431C17.9957 26.2564 18.2239 26.3544 18.4925 26.3544V25.8514C18.3485 25.8514 18.2158 25.7988 18.103 25.724C17.9886 25.6481 17.9086 25.5583 17.875 25.5092L17.46 25.7935ZM18.4925 26.3544C18.823 26.3544 19.0688 26.1186 19.2218 25.9156C19.3834 25.7013 19.4975 25.4502 19.5554 25.2813L19.0795 25.1183C19.0342 25.2505 18.9422 25.4509 18.8201 25.6128C18.6895 25.7861 18.5744 25.8514 18.4925 25.8514V26.3544ZM19.0795 25.2813C19.1374 25.4502 19.2515 25.7013 19.4131 25.9156C19.5661 26.1186 19.8119 26.3544 20.1424 26.3544V25.8514C20.0605 25.8514 19.9454 25.7861 19.8148 25.6128C19.6927 25.4509 19.6006 25.2505 19.5554 25.1183L19.0795 25.2813ZM20.1424 26.3544C20.411 26.3544 20.6392 26.2564 20.81 26.1431C20.9792 26.0308 21.1054 25.8949 21.1749 25.7935L20.7599 25.5092C20.7263 25.5583 20.6463 25.6481 20.5319 25.724C20.4191 25.7988 20.2863 25.8514 20.1424 25.8514V26.3544Z" fill="#222327"/>
<path d="M20.6903 24.9678C20.6903 25.177 19.7483 25.4433 19.4313 25.527C19.3635 25.5449 19.2936 25.5449 19.2259 25.527C18.9088 25.4433 17.9668 25.177 17.9668 24.9678C17.9668 24.7162 18.7197 24.4473 19.3286 24.4473C19.9374 24.4473 20.6903 24.7162 20.6903 24.9678Z" fill="#222327"/>
<path d="M19.166 18.2768C15.3818 18.2768 13.9911 16.9473 13.7661 16.1697L15.5661 14.2132L19.466 13.5359L24.8659 16.1697C24.5409 16.7968 22.9544 18.2768 19.166 18.2768Z" fill="#222327"/>
<path fill-rule="evenodd" clip-rule="evenodd" d="M19.6898 32.4995C27.5098 32.4995 33.2427 30.2956 33.2427 24.3663C33.2427 16.9488 27.5098 11.3531 19.6898 11.3531C11.8698 11.3531 6.2666 17.4693 6.2666 24.3663C6.2666 30.2956 11.8698 32.4995 19.6898 32.4995ZM19.3823 30.2225C25.1345 30.2225 29.3515 28.6085 29.3515 24.2664C29.3515 18.8345 25.1345 14.7368 19.3823 14.7368C13.6301 14.7368 9.50854 19.2157 9.50854 24.2664C9.50854 28.6085 13.6301 30.2225 19.3823 30.2225Z" fill="white"/>
</svg>
