<svg width="28" height="24" viewBox="0 0 28 24" fill="none" xmlns="http://www.w3.org/2000/svg">
<path d="M4.05418 14.2232C4.03508 14.2063 4.01701 14.1904 3.99996 14.1753V14.0686L3.76564 13.8343C2.30723 12.3759 1.46663 10.4428 1.46663 8.4V8.14577C1.59311 4.18597 4.96694 0.933333 8.93329 0.933333C9.571 0.933333 10.3744 1.15125 11.154 1.57104C11.9044 1.9751 12.5754 2.53553 13.0227 3.17784C13.4575 4.15492 14.8558 4.14051 15.2622 3.13462C15.6413 2.45729 16.2984 1.87138 17.0563 1.44869C17.8353 1.01422 18.6351 0.8 19.2 0.8C23.2834 0.8 26.5399 4.03647 26.6666 8.14539V8.4C26.6666 10.5893 25.8176 12.5041 24.3927 13.8103L24.1333 14.0481V14.1452C24.1081 14.1662 24.0819 14.1883 24.0546 14.2113C23.8472 14.3862 23.5654 14.629 23.2292 14.9213C22.5561 15.5066 21.6542 16.3 20.671 17.1665C20.356 17.4441 20.0327 17.7292 19.7057 18.0176C17.9915 19.5292 16.1783 21.1282 14.9497 22.1894C14.4479 22.6035 13.6854 22.6035 13.1836 22.1894C11.7184 20.924 9.3902 18.8951 7.40974 17.1643C6.41835 16.2979 5.51463 15.5066 4.85061 14.9238C4.51853 14.6323 4.24681 14.3933 4.05418 14.2232Z" fill="#FF68CC" stroke="#FF68CC" stroke-width="1.6"/>
</svg>
