<svg width="106" height="43" viewBox="0 0 106 43" fill="none" xmlns="http://www.w3.org/2000/svg">
<rect y="0.5" width="106" height="42" rx="8" fill="#3692FF"/>
<path d="M30.8281 15.9375C30.8281 17.7188 32.8125 19.5156 35.8281 19.9062L35.1406 21.3125C32.7422 20.9531 30.8359 19.7734 29.9219 18.1719C28.9922 19.7734 27.0938 20.9531 24.7188 21.3125L24.0312 19.9062C27.0156 19.5156 29 17.7188 29 15.9375V15.2188H30.8281V15.9375ZM36.3438 22.5312V23.9688H30.7344V28.8906H29.0156V23.9688H23.4688V22.5312H36.3438ZM49.125 14.7656V23.1562H47.3906V19.7031H44.9844V18.2812H47.3906V14.7656H49.125ZM44.3438 23.5156C47.3438 23.5156 49.1719 24.5 49.1719 26.2031C49.1719 27.9062 47.3438 28.8906 44.3438 28.8906C41.3594 28.8906 39.5312 27.9062 39.5469 26.2031C39.5312 24.5 41.3594 23.5156 44.3438 23.5156ZM44.3438 24.8438C42.375 24.8438 41.2656 25.3125 41.2656 26.2031C41.2656 27.0781 42.375 27.5469 44.3438 27.5469C46.3125 27.5469 47.4375 27.0781 47.4375 26.2031C47.4375 25.3125 46.3125 24.8438 44.3438 24.8438ZM42.4844 17.1875C42.4844 18.9062 43.625 20.6406 45.8125 21.375L44.9375 22.75C43.3672 22.2188 42.25 21.1406 41.6406 19.8125C41.0156 21.3203 39.8359 22.5234 38.1562 23.125L37.25 21.75C39.5156 20.9688 40.7188 19.0625 40.7188 17.2031V17.0938H37.7812V15.6875H45.4062V17.0938H42.4844V17.1875ZM59.1875 15.375C61.25 15.375 62.7188 16.5156 62.7344 18.2188C62.7188 19.6172 61.6641 20.6719 60.0938 20.9688V22.1094C61.2656 22.0469 62.4453 21.9375 63.5469 21.7812L63.6875 23.0469C60.75 23.5781 57.4688 23.625 55.0781 23.625L54.8906 22.2344C55.9062 22.2422 57.0938 22.2344 58.3438 22.1875V20.9688C56.7266 20.7031 55.6406 19.6406 55.6562 18.2188C55.6406 16.5156 57.1094 15.375 59.1875 15.375ZM59.1875 16.7031C58.0625 16.7031 57.2656 17.2656 57.2812 18.2188C57.2656 19.1406 58.0625 19.7188 59.1875 19.7344C60.3125 19.7188 61.0781 19.1406 61.0938 18.2188C61.0781 17.2656 60.3125 16.7031 59.1875 16.7031ZM66.1094 14.7812V19.3438H68.0156V20.7812H66.1094V25.5625H64.375V14.7812H66.1094ZM66.6094 27.1875V28.5938H56.8281V24.6094H58.5625V27.1875H66.6094ZM81.6562 25.8125V27.25H68.75V25.8125H72.1719V23.4844H70.2812V18.875H78.4062V17.1406H70.25V15.7344H80.125V20.2656H72.0156V22.0781H80.4531V23.4844H78.3906V25.8125H81.6562ZM73.8594 25.8125H76.6875V23.4844H73.8594V25.8125Z" fill="#F3F4F6"/>
</svg>
