<svg width="240" height="48" viewBox="0 0 240 48" fill="none" xmlns="http://www.w3.org/2000/svg">
<rect width="240" height="48" rx="24" fill="#3692FF"/>
<path d="M52.8037 16.3242V21.8438H48.374V23.5137H54.6494V25.0957H40.165V23.5137H46.4053V21.8438H41.9932V16.3242H52.8037ZM43.8916 17.8535V20.2969H50.8701V17.8535H43.8916ZM52.874 26.4316V31.5645H50.9229V27.9785H41.7646V26.4316H52.874ZM70.2236 24.2695V25.8516H55.7041V24.2695H61.9971V22.9512H57.5498V18.7324H66.4795V17.5547H57.4971V16.0254H68.4307V20.1562H59.4834V21.4219H68.7471V22.9512H63.9307V24.2695H70.2236ZM68.5186 26.8535V31.459H66.5498V28.4004H57.3213V26.8535H68.5186ZM78.5029 16.5703C81.8604 16.5703 84.4268 18.3457 84.4268 21.0527C84.4268 23.7949 81.8604 25.5703 78.5029 25.5703C75.1631 25.5703 72.5967 23.7949 72.6143 21.0527C72.5967 18.3457 75.1631 16.5703 78.5029 16.5703ZM78.5029 18.1523C76.2002 18.1348 74.4951 19.2949 74.4951 21.0527C74.4951 22.8457 76.2002 23.9707 78.5029 23.9707C80.8232 23.9707 82.5107 22.8457 82.5107 21.0527C82.5107 19.2949 80.8232 18.1348 78.5029 18.1523ZM85.7979 27.9609V29.5605H71.2783V27.9609H85.7979ZM101.354 28.1016V29.7188H86.835V28.1016H93.0928V25.5176H88.5576V20.3145H97.6982V18.3457H88.5225V16.7637H99.6318V21.8613H90.5088V23.918H100.001V25.5176H95.0264V28.1016H101.354ZM119.442 19.541V21.0879H114.872V22.3008H121.147V23.8477H106.663V22.3008H112.921V21.0879H108.509V16.2363H119.302V17.8184H110.46V19.541H119.442ZM119.337 24.8672V28.7344H110.302V29.9121H119.776V31.4062H108.386V27.3633H117.421V26.3086H108.368V24.8672H119.337ZM126.491 16.834C128.882 16.834 130.604 19.0137 130.622 22.4414C130.604 25.9043 128.882 28.0664 126.491 28.0664C124.083 28.0664 122.343 25.9043 122.36 22.4414C122.343 19.0137 124.083 16.834 126.491 16.834ZM126.491 18.5918C125.155 18.5918 124.241 20.0156 124.241 22.4414C124.241 24.8848 125.155 26.3086 126.491 26.3086C127.845 26.3086 128.741 24.8848 128.741 22.4414C128.741 20.0156 127.845 18.5918 126.491 18.5918ZM134.665 15.6738V21.7734H137.108V23.4258H134.665V31.5645H132.714V15.6738H134.665ZM150.222 15.6738V21.8789H152.577V23.5137H150.222V31.5293H148.271V15.6738H150.222ZM146.021 17.3262C146.021 22.002 144.087 26.0977 138.796 28.6992L137.688 27.1875C141.556 25.2627 143.647 22.5557 144.052 18.9434H138.55V17.3262H146.021ZM166.604 15.6738V31.5645H164.636V15.6738H166.604ZM161.858 17.3613C161.858 22.0898 160.03 26.1152 154.458 28.752L153.438 27.1875C157.596 25.21 159.529 22.5205 159.872 18.9082H154.247V17.3613H161.858Z" fill="#F3F4F6"/>
<path d="M182.533 15.6C182.036 15.6 181.633 16.0029 181.633 16.5C181.633 16.9971 182.036 17.4 182.533 17.4V15.6ZM182.533 17.4H192.667V15.6H182.533V17.4ZM197.1 21.8333V22.9H198.9V21.8333H197.1ZM192.667 27.3333H182.533V29.1333H192.667V27.3333ZM197.1 22.9C197.1 25.3485 195.115 27.3333 192.667 27.3333V29.1333C196.109 29.1333 198.9 26.3426 198.9 22.9H197.1ZM192.667 17.4C195.115 17.4 197.1 19.3849 197.1 21.8333H198.9C198.9 18.3908 196.109 15.6 192.667 15.6V17.4Z" fill="white"/>
<path d="M179 28.2333L186.2 24.5383L186.2 31.9284L179 28.2333Z" fill="white"/>
</svg>
