<svg width="166" height="48" viewBox="0 0 166 48" fill="none" xmlns="http://www.w3.org/2000/svg">
<rect x="0.5" width="165" height="48" rx="8" fill="#3692FF"/>
<path d="M80.6562 17.2812V21.3906H82.5625V22.8281H80.6562V26.8281H78.9219V17.2812H80.6562ZM69.3438 25.1406C70.4062 25.1406 71.6328 25.1328 72.9062 25.0938V24.2344C71.3359 24.0391 70.3438 23.2812 70.3438 22.1719C70.3438 20.875 71.7031 20.0625 73.75 20.0781C75.8125 20.0625 77.1562 20.875 77.1562 22.1719C77.1562 23.2734 76.1875 24.0234 74.6406 24.2188V25.0312C75.8438 24.9766 77.0547 24.8828 78.1875 24.7344L78.3281 25.9375C75.3125 26.4688 72.0156 26.5 69.5312 26.5L69.3438 25.1406ZM80.6562 27.4375V31.3906H78.9219V28.7969H71.125V27.4375H80.6562ZM77.8125 18.3906V19.6719H69.7031V18.3906H72.9062V17.1562H74.6406V18.3906H77.8125ZM73.75 21.25C72.6562 21.2344 72 21.5625 72.0156 22.1719C72 22.75 72.6562 23.125 73.75 23.1094C74.8438 23.125 75.5 22.75 75.5 22.1719C75.5 21.5625 74.8438 21.2344 73.75 21.25ZM95.0625 17.2812V27.4844H93.3125V17.2812H95.0625ZM95.4531 29.7031V31.1094H85.7188V26.4531H87.4688V29.7031H95.4531ZM87.3594 18.2031C89.5 18.2031 91.1562 19.6875 91.1562 21.7344C91.1562 23.8281 89.5 25.2812 87.3594 25.2812C85.2031 25.2812 83.5469 23.8281 83.5469 21.7344C83.5469 19.6875 85.2031 18.2031 87.3594 18.2031ZM87.3594 19.7188C86.1562 19.7188 85.2344 20.5156 85.25 21.7344C85.2344 22.9844 86.1562 23.7656 87.3594 23.7656C88.5312 23.7656 89.4531 22.9844 89.4531 21.7344C89.4531 20.5156 88.5312 19.7188 87.3594 19.7188Z" fill="#F3F4F6"/>
</svg>
