<svg width="74" height="42" viewBox="0 0 74 42" fill="none" xmlns="http://www.w3.org/2000/svg">
<rect width="74" height="42" rx="8" fill="#3692ff"/>
<path d="M36.3594 20.8125V22.2344H23.4688V20.8125H36.3594ZM34.875 18.3125V19.7031H25.0469V14.7188H34.7969V16.125H26.7812V18.3125H34.875ZM29.8906 23.2188C32.9375 23.2031 34.7656 24.1406 34.7812 25.7812C34.7656 27.4375 32.9375 28.375 29.8906 28.375C26.8125 28.375 24.9688 27.4375 24.9688 25.7812C24.9688 24.1406 26.8125 23.2031 29.8906 23.2188ZM29.8906 24.5469C27.8281 24.5469 26.7188 24.9844 26.7344 25.7812C26.7188 26.6094 27.8281 27.0312 29.8906 27.0312C31.9062 27.0312 33.0312 26.6094 33.0469 25.7812C33.0312 24.9844 31.9062 24.5469 29.8906 24.5469ZM50.1875 21.9062V23.3125H37.2812V21.9062H42.875V20.7344H38.9219V16.9844H46.8594V15.9375H38.875V14.5781H48.5938V18.25H40.6406V19.375H48.875V20.7344H44.5938V21.9062H50.1875ZM48.6719 24.2031V28.2969H46.9219V25.5781H38.7188V24.2031H48.6719Z" fill="#F3F4F6"/>
</svg>
