<svg width="121" height="48" viewBox="0 0 121 48" fill="none" xmlns="http://www.w3.org/2000/svg">
<rect x="0.5" width="120" height="48" rx="8" fill="#3692FF"/>
<path d="M58.1562 17.2812V21.3906H60.0625V22.8281H58.1562V26.8281H56.4219V17.2812H58.1562ZM46.8438 25.1406C47.9062 25.1406 49.1328 25.1328 50.4062 25.0938V24.2344C48.8359 24.0391 47.8438 23.2812 47.8438 22.1719C47.8438 20.875 49.2031 20.0625 51.25 20.0781C53.3125 20.0625 54.6562 20.875 54.6562 22.1719C54.6562 23.2734 53.6875 24.0234 52.1406 24.2188V25.0312C53.3438 24.9766 54.5547 24.8828 55.6875 24.7344L55.8281 25.9375C52.8125 26.4688 49.5156 26.5 47.0312 26.5L46.8438 25.1406ZM58.1562 27.4375V31.3906H56.4219V28.7969H48.625V27.4375H58.1562ZM55.3125 18.3906V19.6719H47.2031V18.3906H50.4062V17.1562H52.1406V18.3906H55.3125ZM51.25 21.25C50.1562 21.2344 49.5 21.5625 49.5156 22.1719C49.5 22.75 50.1562 23.125 51.25 23.1094C52.3438 23.125 53 22.75 53 22.1719C53 21.5625 52.3438 21.2344 51.25 21.25ZM72.5625 17.2812V27.4844H70.8125V17.2812H72.5625ZM72.9531 29.7031V31.1094H63.2188V26.4531H64.9688V29.7031H72.9531ZM64.8594 18.2031C67 18.2031 68.6562 19.6875 68.6562 21.7344C68.6562 23.8281 67 25.2812 64.8594 25.2812C62.7031 25.2812 61.0469 23.8281 61.0469 21.7344C61.0469 19.6875 62.7031 18.2031 64.8594 18.2031ZM64.8594 19.7188C63.6562 19.7188 62.7344 20.5156 62.75 21.7344C62.7344 22.9844 63.6562 23.7656 64.8594 23.7656C66.0312 23.7656 66.9531 22.9844 66.9531 21.7344C66.9531 20.5156 66.0312 19.7188 64.8594 19.7188Z" fill="#F3F4F6"/>
</svg>
