<svg width="88" height="42" viewBox="0 0 88 42" fill="none" xmlns="http://www.w3.org/2000/svg">
<rect width="88" height="42" rx="8" fill="#3692FF"/>
<path d="M34.7969 14.3594V15.2969C34.7969 16.2266 34.7969 17.3828 34.5156 18.8594H36.375V20.2344H23.4688V18.8594H32.7656C33.0156 17.5781 33.0547 16.5703 33.0625 15.7344H25.0625V14.3594H34.7969ZM34.7812 21.3594V25.1875H26.7031V26.3906H35.1406V27.75H24.9688V23.8594H33.0469V22.7188H24.9531V21.3594H34.7812ZM41.7812 16.5156C41.7812 17.8516 42.3516 19.4453 43.7344 20.4062C45.1016 19.4609 45.6719 17.8906 45.6719 16.5156V14.8281H47.4219V16.5156C47.4219 18.2188 48.25 19.9688 50.1719 20.7656L49.2344 22.0625C47.8984 21.4922 47.0234 20.4375 46.5469 19.1562C46.0469 20.4922 45.1484 21.6406 43.7188 22.25C42.2812 21.6406 41.375 20.4688 40.8906 19.1406C40.3984 20.3984 39.5156 21.4766 38.2031 22.0625L37.2969 20.7656C39.1719 19.9375 40.0312 18.125 40.0469 16.5156V14.8281H41.7812V16.5156ZM50.1719 24.6562V26.0781H37.2969V24.6562H50.1719ZM62.9219 13.7656V27.8906H61.1719V13.7656H62.9219ZM58.7031 15.2656C58.7031 19.4688 57.0781 23.0469 52.125 25.3906L51.2188 24C54.9141 22.2422 56.6328 19.8516 56.9375 16.6406H51.9375V15.2656H58.7031Z" fill="white"/>
</svg>
