<svg width="74" height="42" viewBox="0 0 74 42" fill="none" xmlns="http://www.w3.org/2000/svg">
<rect width="74" height="42" rx="8" fill="#3692FF"/>
<path d="M36.3594 20.3125V21.7344H23.4688V20.3125H36.3594ZM34.875 17.8125V19.2031H25.0469V14.2188H34.7969V15.625H26.7812V17.8125H34.875ZM29.8906 22.7188C32.9375 22.7031 34.7656 23.6406 34.7812 25.2812C34.7656 26.9375 32.9375 27.875 29.8906 27.875C26.8125 27.875 24.9688 26.9375 24.9688 25.2812C24.9688 23.6406 26.8125 22.7031 29.8906 22.7188ZM29.8906 24.0469C27.8281 24.0469 26.7188 24.4844 26.7344 25.2812C26.7188 26.1094 27.8281 26.5312 29.8906 26.5312C31.9062 26.5312 33.0312 26.1094 33.0469 25.2812C33.0312 24.4844 31.9062 24.0469 29.8906 24.0469ZM50.1875 21.4062V22.8125H37.2812V21.4062H42.875V20.2344H38.9219V16.4844H46.8594V15.4375H38.875V14.0781H48.5938V17.75H40.6406V18.875H48.875V20.2344H44.5938V21.4062H50.1875ZM48.6719 23.7031V27.7969H46.9219V25.0781H38.7188V23.7031H48.6719Z" fill="white"/>
</svg>
