<svg width="282" height="282" viewBox="0 0 282 282" fill="none" xmlns="http://www.w3.org/2000/svg">
<rect width="282" height="282" rx="12" fill="#F3F4F6"/>
<path d="M127 122H155" stroke="#9CA3AF" stroke-width="4" stroke-linecap="round"/>
<path d="M141 136V108" stroke="#9CA3AF" stroke-width="4" stroke-linecap="round"/>
<path d="M116.016 164.375V178.297H114.781V164.375H116.016ZM108.625 165.453C110.688 165.469 112.172 167.344 112.172 170.297C112.172 173.25 110.688 175.125 108.625 175.125C106.547 175.125 105.078 173.25 105.078 170.297C105.078 167.344 106.547 165.469 108.625 165.453ZM108.625 166.547C107.234 166.562 106.266 168.031 106.266 170.297C106.266 172.562 107.234 174.031 108.625 174.031C110.016 174.031 110.984 172.562 110.984 170.297C110.984 168.031 110.016 166.562 108.625 166.547ZM125.625 165.75V174.781H119.203V165.75H125.625ZM120.406 166.734V173.781H124.422V166.734H120.406ZM129.844 164.375V178.297H128.609V164.375H129.844ZM137.188 168.641C137.188 171 138.906 173.391 140.953 174.281L140.266 175.25C138.641 174.508 137.234 172.906 136.594 170.984C135.938 173.023 134.539 174.797 132.953 175.594L132.219 174.625C134.203 173.672 135.938 171.047 135.953 168.641V166.828H132.672V165.812H140.5V166.828H137.188V168.641ZM143.672 164.375V178.266H142.438V164.375H143.672ZM162.734 170.984V172.016H150.062V170.984H162.734ZM161.25 168.656V169.656H151.672V164.938H161.156V165.969H152.875V168.656H161.25ZM156.391 173.234C159.375 173.234 161.156 174.141 161.172 175.734C161.156 177.344 159.375 178.234 156.391 178.234C153.391 178.234 151.594 177.344 151.594 175.734C151.594 174.141 153.391 173.234 156.391 173.234ZM156.391 174.188C154.156 174.203 152.828 174.766 152.844 175.734C152.828 176.719 154.156 177.266 156.391 177.266C158.594 177.266 159.938 176.719 159.938 175.734C159.938 174.766 158.594 174.203 156.391 174.188ZM176.594 172.031V173.047H163.875V172.031H169.625V170.562H165.531V167.172H173.719V165.734H165.484V164.734H174.953V168.094H166.75V169.578H175.25V170.562H170.828V172.031H176.594ZM175.031 174.109V178.141H173.797V175.109H165.297V174.109H175.031Z" fill="#9CA3AF"/>
</svg>
