<svg width="40" height="41" viewBox="0 0 40 41" fill="none" xmlns="http://www.w3.org/2000/svg">
<rect y="0.0168457" width="40" height="40.1354" rx="11.1782" fill="#3692FF"/>
<path d="M19.3139 11.1915C19.8132 12.9169 18.493 14.8183 16.9797 15.2591C15.4663 15.7 13.3989 14.7856 12.8996 13.0601C12.4003 11.3346 13.4485 8.94388 14.9618 8.503C16.9797 7.91513 18.8146 9.46597 19.3139 11.1915Z" fill="#222327"/>
<path d="M20.1471 11.1915C19.6478 12.9169 20.968 14.8183 22.4813 15.2591C23.9946 15.7 26.0621 14.7856 26.5614 13.0601C27.0607 11.3346 26.0125 8.94388 24.4992 8.503C22.4813 7.91513 20.6464 9.46597 20.1471 11.1915Z" fill="#222327"/>
<path d="M29.5152 23.7966C29.5152 28.1854 25.2118 29.8168 19.3417 29.8168C13.4717 29.8168 9.26562 28.1854 9.26562 23.7966C9.26562 18.6915 13.4717 14.1643 19.3417 14.1643C25.2118 14.1643 29.5152 18.3062 29.5152 23.7966Z" fill="#F3D6DD"/>
<path d="M17.4003 22.9301C17.4003 24.3675 16.4777 25.9444 15.1884 25.9444C13.8991 25.9444 11.8164 24.7732 11.8164 22.626C11.8164 20.609 14.0664 19.8916 16.3913 20.2599C17.8163 20.4857 17.4003 21.4927 17.4003 22.9301Z" fill="#222327"/>
<path d="M16.3211 22.785C16.3211 23.0007 16.2563 23.1754 15.932 23.1754C15.6078 23.1754 15.543 23.0007 15.543 22.785C15.543 22.5694 15.6727 22.3947 15.932 22.3947C16.1914 22.3947 16.3211 22.5694 16.3211 22.785Z" fill="white"/>
<path d="M21.3223 22.9301C21.3223 24.3675 22.2449 25.9444 23.5342 25.9444C24.8235 25.9444 26.9062 24.7732 26.9062 22.626C26.9062 20.609 24.6563 19.8916 22.3313 20.2599C20.9064 20.4857 21.3223 21.4927 21.3223 22.9301Z" fill="#222327"/>
<path d="M22.4015 22.7852C22.4015 23.0008 22.4664 23.1756 22.7906 23.1756C23.1148 23.1756 23.1797 23.0008 23.1797 22.7852C23.1797 22.5696 23.05 22.3948 22.7906 22.3948C22.5312 22.3948 22.4015 22.5696 22.4015 22.7852Z" fill="white"/>
<path d="M17.8735 25.0098C17.795 24.8952 17.6384 24.866 17.5239 24.9445C17.4093 25.023 17.38 25.1795 17.4585 25.2941L17.8735 25.0098ZM19.316 24.7004L19.5539 24.6189C19.5191 24.5172 19.4235 24.4489 19.316 24.4489C19.2085 24.4489 19.1129 24.5172 19.0781 24.6189L19.316 24.7004ZM21.1734 25.2941C21.2519 25.1795 21.2227 25.023 21.1081 24.9445C20.9935 24.866 20.837 24.8952 20.7585 25.0098L21.1734 25.2941ZM17.4585 25.2941C17.528 25.3955 17.6542 25.5315 17.8235 25.6437C17.9942 25.757 18.2224 25.855 18.491 25.855V25.352C18.3471 25.352 18.2143 25.2994 18.1015 25.2246C17.9872 25.1487 17.9071 25.0589 17.8735 25.0098L17.4585 25.2941ZM18.491 25.855C18.8215 25.855 19.0674 25.6192 19.2203 25.4162C19.3819 25.2019 19.4961 24.9508 19.5539 24.782L19.0781 24.6189C19.0328 24.7511 18.9407 24.9515 18.8187 25.1135C18.6881 25.2867 18.573 25.352 18.491 25.352V25.855ZM19.0781 24.782C19.1359 24.9508 19.2501 25.2019 19.4116 25.4162C19.5646 25.6192 19.8104 25.855 20.141 25.855V25.352C20.059 25.352 19.9439 25.2867 19.8133 25.1135C19.6913 24.9515 19.5992 24.7511 19.5539 24.6189L19.0781 24.782ZM20.141 25.855C20.4095 25.855 20.6377 25.757 20.8085 25.6437C20.9777 25.5315 21.1039 25.3955 21.1734 25.2941L20.7585 25.0098C20.7248 25.0589 20.6448 25.1487 20.5304 25.2246C20.4176 25.2994 20.2849 25.352 20.141 25.352V25.855Z" fill="#222327"/>
<path d="M20.6884 24.468C20.6884 24.6773 19.7464 24.9435 19.4293 25.0272C19.3616 25.0451 19.2917 25.0451 19.2239 25.0272C18.9069 24.9435 17.9648 24.6773 17.9648 24.468C17.9648 24.2165 18.7178 23.9475 19.3266 23.9475C19.9354 23.9475 20.6884 24.2165 20.6884 24.468Z" fill="#222327"/>
<path d="M19.1655 17.7763C15.3813 17.7763 13.9906 16.4468 13.7656 15.6692L15.5656 13.7127L19.4655 13.0354L24.8654 15.6692C24.5404 16.2963 22.9539 17.7763 19.1655 17.7763Z" fill="#222327"/>
<path fill-rule="evenodd" clip-rule="evenodd" d="M19.6888 31.9992C27.5088 31.9992 33.2417 29.7952 33.2417 23.8659C33.2417 16.4484 27.5088 10.8528 19.6888 10.8528C11.8688 10.8528 6.26562 16.969 6.26562 23.8659C6.26562 29.7952 11.8688 31.9992 19.6888 31.9992ZM19.3813 29.7221C25.1336 29.7221 29.3505 28.1081 29.3505 23.7661C29.3505 18.3342 25.1336 14.2364 19.3813 14.2364C13.6291 14.2364 9.50756 18.7154 9.50756 23.7661C9.50756 28.1081 13.6291 29.7221 19.3813 29.7221Z" fill="white"/>
</svg>
