<svg width="640" height="56" viewBox="0 0 640 56" fill="none" xmlns="http://www.w3.org/2000/svg">
<rect width="640" height="56" rx="28" fill="#3692FF"/>
<path d="M310.791 32.8906V34.6875H294.658V32.8906H301.611V30.0195H296.572V24.2383H306.729V22.0508H296.533V20.293H308.877V25.957H298.74V28.2422H309.287V30.0195H303.76V32.8906H310.791ZM325.986 20.8008V22.793C325.986 25.1562 325.986 27.5977 325.342 31.3086L323.135 31.1133C323.818 27.6367 323.818 25.0781 323.818 22.793V22.5586H313.643V20.8008H325.986ZM328.037 32.5391V34.3164H311.943V32.5391H328.037ZM343.936 19.1016V31.8555H341.748V19.1016H343.936ZM344.424 34.6289V36.3867H332.256V30.5664H334.443V34.6289H344.424ZM334.307 20.2539C336.982 20.2539 339.053 22.1094 339.053 24.668C339.053 27.2852 336.982 29.1016 334.307 29.1016C331.611 29.1016 329.541 27.2852 329.541 24.668C329.541 22.1094 331.611 20.2539 334.307 20.2539ZM334.307 22.1484C332.803 22.1484 331.65 23.1445 331.67 24.668C331.65 26.2305 332.803 27.207 334.307 27.207C335.771 27.207 336.924 26.2305 336.924 24.668C336.924 23.1445 335.771 22.1484 334.307 22.1484Z" fill="white"/>
</svg>
