<?xml version="1.0" standalone="no"?>
<!DOCTYPE svg PUBLIC "-//W3C//DTD SVG 20010904//EN"
 "http://www.w3.org/TR/2001/REC-SVG-20010904/DTD/svg10.dtd">
<svg version="1.0" xmlns="http://www.w3.org/2000/svg"
 width="96.000000pt" height="96.000000pt" viewBox="0 0 96.000000 96.000000"
 preserveAspectRatio="xMidYMid meet">

<g transform="translate(0.000000,96.000000) scale(0.100000,-0.100000)"
fill="#000000" stroke="none">
<path d="M369 765 c-104 -28 -215 -110 -267 -198 -32 -53 -33 -58 -22 -93 17
-52 141 -174 210 -207 107 -52 246 -59 341 -19 114 49 201 124 241 208 21 43
21 43 2 86 -10 23 -44 69 -76 100 -110 113 -285 163 -429 123z m271 -78 c104
-50 198 -152 186 -202 -9 -37 -120 -141 -184 -171 -51 -25 -69 -28 -162 -28
-95 -1 -110 2 -160 26 -71 35 -122 78 -161 135 -28 40 -30 48 -20 71 36 79
138 161 231 187 84 23 201 15 270 -18z"/>
<path d="M404 641 c-111 -68 -113 -205 -5 -278 98 -66 241 15 241 137 0 119
-138 201 -236 141z"/>
</g>
</svg>
