<svg width="343" height="56" viewBox="0 0 343 56" fill="none" xmlns="http://www.w3.org/2000/svg">
<rect width="343" height="56" rx="28" fill="#3692FF"/>
<path d="M162.291 32.8906V34.6875H146.158V32.8906H153.111V30.0195H148.072V24.2383H158.229V22.0508H148.033V20.293H160.377V25.957H150.24V28.2422H160.787V30.0195H155.26V32.8906H162.291ZM177.486 20.8008V22.793C177.486 25.1562 177.486 27.5977 176.842 31.3086L174.635 31.1133C175.318 27.6367 175.318 25.0781 175.318 22.793V22.5586H165.143V20.8008H177.486ZM179.537 32.5391V34.3164H163.443V32.5391H179.537ZM195.436 19.1016V31.8555H193.248V19.1016H195.436ZM195.924 34.6289V36.3867H183.756V30.5664H185.943V34.6289H195.924ZM185.807 20.2539C188.482 20.2539 190.553 22.1094 190.553 24.668C190.553 27.2852 188.482 29.1016 185.807 29.1016C183.111 29.1016 181.041 27.2852 181.041 24.668C181.041 22.1094 183.111 20.2539 185.807 20.2539ZM185.807 22.1484C184.303 22.1484 183.15 23.1445 183.17 24.668C183.15 26.2305 184.303 27.207 185.807 27.207C187.271 27.207 188.424 26.2305 188.424 24.668C188.424 23.1445 187.271 22.1484 185.807 22.1484Z" fill="white"/>
</svg>
