<svg width="640" height="56" viewBox="0 0 640 56" fill="none" xmlns="http://www.w3.org/2000/svg">
<rect width="640" height="56" rx="28" fill="#9CA3AF"/>
<path d="M300.723 19.082V36.7383H298.555V19.082H300.723ZM286.094 31.8359C287.5 31.8262 289.092 31.8262 290.762 31.7773V30.1562C288.77 29.8438 287.48 28.623 287.48 26.9531C287.48 24.9609 289.238 23.6328 291.816 23.6328C294.414 23.6328 296.211 24.9609 296.211 26.9531C296.211 28.6133 294.912 29.8242 292.93 30.1367V31.6992C294.482 31.6309 296.045 31.5039 297.52 31.3086L297.676 32.9297C293.789 33.5938 289.59 33.6328 286.406 33.6328L286.094 31.8359ZM297.207 21.1133V22.832H286.465V21.1133H290.762V19.1406H292.93V21.1133H297.207ZM291.816 25.293C290.488 25.3125 289.531 25.918 289.551 26.9531C289.531 27.9688 290.488 28.5742 291.816 28.5547C293.203 28.5742 294.121 27.9688 294.121 26.9531C294.121 25.918 293.203 25.3125 291.816 25.293ZM318.105 19.1016V32.4609H315.918V30.918H312.461V29.3945H315.918V19.1016H318.105ZM318.516 34.6289V36.3867H305.566V31.1719H307.734V34.6289H318.516ZM303.223 27.0312C306.484 27.0117 310.859 26.9727 314.609 26.5039L314.727 28.0664C313.271 28.3105 311.768 28.4766 310.273 28.5742V31.9727H308.105V28.6914C306.455 28.7598 304.883 28.7695 303.496 28.7695L303.223 27.0312ZM308.984 19.7461C311.562 19.7461 313.359 21.0156 313.379 22.8711C313.359 24.7656 311.562 25.9766 308.984 25.9766C306.367 25.9766 304.57 24.7656 304.57 22.8711C304.57 21.0156 306.367 19.7461 308.984 19.7461ZM308.984 21.3477C307.578 21.3477 306.621 21.9141 306.621 22.8711C306.621 23.8281 307.578 24.3945 308.984 24.3945C310.332 24.3945 311.289 23.8281 311.309 22.8711C311.289 21.9141 310.332 21.3477 308.984 21.3477ZM334.414 19.082V25.9766H337.031V27.793H334.414V36.6992H332.246V19.082H334.414ZM329.746 20.918C329.746 26.1133 327.598 30.6641 321.719 33.5547L320.488 31.875C324.785 29.7363 327.109 26.7285 327.559 22.7148H321.445V20.918H329.746ZM352.578 19.082V28.5547H350.391V19.082H352.578ZM343.047 29.375V31.1914H350.41V29.375H352.578V36.5234H340.898V29.375H343.047ZM343.047 34.7656H350.41V32.8906H343.047V34.7656ZM342.949 19.8633C345.664 19.8438 347.695 21.543 347.695 24.0039C347.695 26.4062 345.664 28.1055 342.949 28.1055C340.215 28.1055 338.184 26.4062 338.184 24.0039C338.184 21.543 340.215 19.8438 342.949 19.8633ZM342.949 21.6797C341.406 21.6797 340.293 22.5781 340.312 24.0039C340.293 25.4102 341.406 26.3086 342.949 26.3281C344.473 26.3086 345.566 25.4102 345.566 24.0039C345.566 22.5781 344.473 21.6797 342.949 21.6797Z" fill="white"/>
</svg>
