<svg width="81" height="28" viewBox="0 0 81 28" fill="none" xmlns="http://www.w3.org/2000/svg">
<path d="M17.5757 9.36532H19.9999V12.1936H17.5757V17.931H13.9394V14.3754C11.3535 14.9007 8.78785 15.1835 5.05049 15.1835H0.808078V12.4158H2.42424V6.67846H1.21212V3.9512H12.3636V6.67846H11.1515V12.1128C12.1414 11.9916 13.0707 11.8502 13.9394 11.6885V3.74918H17.5757V9.36532ZM2.80807 22.739V16.739H6.52523V19.9309H17.9797V22.739H2.80807ZM6.06059 12.4158C6.56564 12.3956 7.05048 12.3956 7.51513 12.3754V6.67846H6.06059V12.4158ZM40.2019 10.7795V13.6077H37.7777V22.739H34.1413V19.5673C31.5555 20.3148 28.9898 20.739 25.2524 20.739H21.6161V4.35524H31.9595V7.0825H25.2524V17.9714C28.9494 17.9714 31.5757 17.6077 34.1413 16.8805V3.74918H37.7777V10.7795H40.2019ZM60.4039 10.7795V13.6077H57.9796V22.739H54.3433V3.74918H57.9796V10.7795H60.4039ZM41.8181 20.739V4.35524H52.3837V20.739H41.8181ZM45.4544 17.9714H48.7877V7.1229H45.4544V17.9714ZM75.8584 3.74918H79.3937V14.6986H75.8584V3.74918ZM60.8079 12.537C63.1715 12.0522 64.9493 11.3047 65.9392 10.3552L62.02 10.5976V7.97139H66.7877V6.67846H62.4241V3.9512H70.323V7.58755H71.4745V3.85019H74.9089V14.6986H71.4745V10.4158H69.7978C68.7271 12.4966 66.0402 14.2138 61.9594 15.2441L60.8079 12.537ZM63.0099 19.8501C67.9998 19.6683 69.4543 18.638 69.4543 16.8805V15.3451H73.0907V17.2037C73.0907 17.6885 73.0301 18.1532 72.9089 18.5774C75.2523 18.739 77.5755 19.0623 79.3937 19.4865L78.424 22.739C76.3432 22.0118 73.4341 21.3047 71.0907 20.9208C69.4139 22.0522 66.7271 22.5976 63.3938 22.739L63.0099 19.8501Z" fill="#3692FF"/>
</svg>
