<svg width="396" height="132" viewBox="0 0 396 132" fill="none" xmlns="http://www.w3.org/2000/svg">
<rect y="12.9847" width="103.529" height="103.88" rx="28.9317" fill="#3692FF"/>
<path d="M49.9902 41.9063C51.2825 46.3722 47.8655 51.2933 43.9487 52.4344C40.0319 53.5754 34.6808 51.2088 33.3885 46.7428C32.0962 42.2769 34.8091 36.089 38.7259 34.9479C43.9487 33.4264 48.6978 37.4403 49.9902 41.9063Z" fill="#222327"/>
<path d="M52.1439 41.9063C50.8516 46.3722 54.2686 51.2933 58.1854 52.4344C62.1021 53.5754 67.4532 51.2088 68.7455 46.7428C70.0378 42.2769 67.3249 36.089 63.4081 34.9479C58.1854 33.4264 53.4362 37.4403 52.1439 41.9063Z" fill="#222327"/>
<path d="M76.3971 74.5325C76.3971 85.8918 65.2589 90.1142 50.0657 90.1142C34.8725 90.1142 23.9863 85.8918 23.9863 74.5325C23.9863 61.3193 34.8725 49.6019 50.0657 49.6019C65.2589 49.6019 76.3971 60.3221 76.3971 74.5325Z" fill="#F3D6DD"/>
<path d="M45.0365 72.2898C45.0365 76.0101 42.6485 80.0913 39.3115 80.0913C35.9745 80.0913 30.584 77.06 30.584 71.5027C30.584 66.2821 36.4074 64.4254 42.4249 65.3787C46.1131 65.963 45.0365 68.5695 45.0365 72.2898Z" fill="#222327"/>
<path d="M42.2451 71.9142C42.2451 72.4723 42.0773 72.9247 41.2381 72.9247C40.3989 72.9247 40.2311 72.4723 40.2311 71.9142C40.2311 71.3562 40.5668 70.9038 41.2381 70.9038C41.9095 70.9038 42.2451 71.3562 42.2451 71.9142Z" fill="white"/>
<path d="M55.1867 72.29C55.1867 76.0103 57.5746 80.0916 60.9116 80.0916C64.2486 80.0916 69.6392 77.0603 69.6392 71.5029C69.6392 66.2823 63.8157 64.4256 57.7982 65.379C54.1101 65.9633 55.1867 68.5697 55.1867 72.29Z" fill="#222327"/>
<path d="M57.9811 71.9142C57.9811 72.4723 58.149 72.9247 58.9882 72.9247C59.8273 72.9247 59.9952 72.4723 59.9952 71.9142C59.9952 71.3562 59.6595 70.9038 58.9882 70.9038C58.3168 70.9038 57.9811 71.3562 57.9811 71.9142Z" fill="white"/>
<path d="M46.2655 77.6709C46.0623 77.3744 45.6572 77.2987 45.3606 77.5019C45.064 77.7051 44.9883 78.1102 45.1915 78.4068L46.2655 77.6709ZM49.999 76.8702L50.6148 76.6593C50.5247 76.3961 50.2772 76.2193 49.999 76.2193C49.7208 76.2193 49.4734 76.3961 49.3832 76.6593L49.999 76.8702ZM54.8065 78.4068C55.0097 78.1102 54.934 77.7051 54.6375 77.5019C54.3409 77.2987 53.9357 77.3744 53.7325 77.6709L54.8065 78.4068ZM45.1915 78.4068C45.3714 78.6693 45.698 79.0211 46.136 79.3117C46.5781 79.6049 47.1686 79.8584 47.8638 79.8584V78.5565C47.4913 78.5565 47.1477 78.4205 46.8557 78.2268C46.5598 78.0305 46.3526 77.798 46.2655 77.6709L45.1915 78.4068ZM47.8638 79.8584C48.7192 79.8584 49.3555 79.2482 49.7515 78.7228C50.1696 78.1681 50.4651 77.5183 50.6148 77.0812L49.3832 76.6593C49.266 77.0013 49.0277 77.5201 48.7118 77.9392C48.3738 78.3877 48.0759 78.5565 47.8638 78.5565V79.8584ZM49.3832 77.0812C49.5329 77.5183 49.8284 78.1681 50.2465 78.7228C50.6425 79.2482 51.2788 79.8584 52.1343 79.8584V78.5565C51.9221 78.5565 51.6242 78.3877 51.2862 77.9392C50.9703 77.5201 50.732 77.0013 50.6148 76.6593L49.3832 77.0812ZM52.1343 79.8584C52.8294 79.8584 53.42 79.6049 53.862 79.3117C54.3 79.0211 54.6267 78.6693 54.8065 78.4068L53.7325 77.6709C53.6455 77.798 53.4383 78.0305 53.1423 78.2268C52.8504 78.4205 52.5068 78.5565 52.1343 78.5565V79.8584Z" fill="#222327"/>
<path d="M53.553 76.2695C53.553 76.811 51.1148 77.5002 50.2942 77.7168C50.1189 77.7631 49.938 77.7631 49.7626 77.7168C48.9421 77.5002 46.5038 76.811 46.5038 76.2695C46.5038 75.6184 48.4526 74.9222 50.0284 74.9222C51.6042 74.9222 53.553 75.6184 53.553 76.2695Z" fill="#222327"/>
<path d="M49.6071 58.9514C39.8126 58.9514 36.2132 55.5105 35.6309 53.4978L40.2896 48.4338L50.3835 46.6808L64.3597 53.4978C63.5185 55.1209 59.4123 58.9514 49.6071 58.9514Z" fill="#222327"/>
<path fill-rule="evenodd" clip-rule="evenodd" d="M50.9625 95.7635C71.2025 95.7635 86.0405 90.0591 86.0405 74.7128C86.0405 55.5146 71.2025 41.0317 50.9625 41.0317C30.7224 41.0317 16.2201 56.8618 16.2201 74.7128C16.2201 90.0591 30.7224 95.7635 50.9625 95.7635ZM50.1667 89.8699C65.0548 89.8699 75.9693 85.6925 75.9693 74.4543C75.9693 60.3953 65.0548 49.7893 50.1667 49.7893C35.2786 49.7893 24.611 61.3819 24.611 74.4543C24.611 85.6925 35.2786 89.8699 50.1667 89.8699Z" fill="white"/>
<path d="M183.487 54.3351H191.448V63.6233H183.487V82.4651H171.545V70.7885C163.053 72.5135 154.627 73.4423 142.353 73.4423H128.421V64.3531H133.728V45.5113H129.748V36.5548H166.37V45.5113H162.389V63.358C165.64 62.9599 168.692 62.4955 171.545 61.9647V35.8914H183.487V54.3351ZM134.989 98.2551V78.5508H147.196V89.0332H184.813V98.2551H134.989ZM145.67 64.3531C147.329 64.2868 148.921 64.2868 150.447 64.2204V45.5113H145.67V64.3531ZM257.792 58.9792V68.2674H249.831V98.2551H237.889V87.839C229.397 90.2938 220.971 91.687 208.697 91.687H196.755V37.8817H230.724V46.8382H208.697V82.5978C220.839 82.5978 229.463 81.4036 237.889 79.0152V35.8914H249.831V58.9792H257.792ZM324.137 58.9792V68.2674H316.175V98.2551H304.233V35.8914H316.175V58.9792H324.137ZM263.1 91.687V37.8817H297.798V91.687H263.1ZM275.042 82.5978H285.989V46.9709H275.042V82.5978ZM374.89 35.8914H386.5V71.85H374.89V35.8914ZM325.464 64.7512C333.226 63.1589 339.064 60.7042 342.315 57.586L329.444 58.3821V49.7573H345.102V45.5113H330.771V36.5548H356.712V48.4968H360.493V36.2231H371.772V71.85H360.493V57.785H354.987C351.471 64.6185 342.647 70.2578 329.245 73.6413L325.464 64.7512ZM332.695 88.7679C349.082 88.1708 353.859 84.7872 353.859 79.0152V73.9731H365.801V80.0767C365.801 81.669 365.602 83.1949 365.204 84.5882C372.9 85.1189 380.529 86.1804 386.5 87.5737L383.316 98.2551C376.482 95.8667 366.929 93.5447 359.233 92.2841C353.726 95.9994 344.903 97.7907 333.956 98.2551L332.695 88.7679Z" fill="#3692FF"/>
</svg>
