<svg width="140" height="140" viewBox="0 0 140 140" fill="none" xmlns="http://www.w3.org/2000/svg">
<path d="M61.4618 37.3833C63.7332 43.2512 59.6885 50.2864 54.5248 52.2852C49.3611 54.284 41.8463 51.7232 39.5749 45.8554C37.3036 39.9875 40.2475 31.3275 45.4112 29.3287C52.2967 26.6634 59.1905 31.5154 61.4618 37.3833Z" fill="#D1D5DB"/>
<path d="M64.3732 37.1307C63.1488 43.3026 68.3472 49.534 73.7784 50.6114C79.2096 51.6889 86.1696 47.8694 87.394 41.6975C88.6183 35.5257 84.2237 27.5038 78.7925 26.4264C71.5503 24.9897 65.5975 30.9589 64.3732 37.1307Z" fill="#D1D5DB"/>
<path d="M117.761 82.1277C117.761 102.892 97.6167 110.61 70.1386 110.61C42.6605 110.61 22.9719 102.892 22.9719 82.1277C22.9719 57.9747 42.6605 36.556 70.1386 36.556C97.6167 36.556 117.761 56.1518 117.761 82.1277Z" fill="#F3F4F6"/>
<path d="M104.83 81.8885C104.83 97.1102 90.7169 102.768 71.4656 102.768C52.2142 102.768 38.4203 97.1102 38.4203 81.8885C38.4203 64.1824 52.2142 48.4808 71.4656 48.4808C90.7169 48.4808 104.83 62.8461 104.83 81.8885Z" fill="#F9FAFB"/>
<path d="M69.6483 79.765C69.6483 84.7987 66.5789 90.3208 62.2895 90.3208C58.0001 90.3208 51.071 86.2193 51.071 78.7C51.071 71.6364 58.5565 69.1242 66.2915 70.4141C71.0322 71.2047 69.6483 74.7313 69.6483 79.765Z" fill="#D1D5DB"/>
<path d="M66.0608 79.2564C66.0608 80.0115 65.8451 80.6236 64.7664 80.6236C63.6877 80.6236 63.4719 80.0115 63.4719 79.2564C63.4719 78.5014 63.9034 77.8893 64.7664 77.8893C65.6293 77.8893 66.0608 78.5014 66.0608 79.2564Z" fill="#F3F4F6"/>
<path d="M82.3421 79.765C82.3421 84.7987 85.1871 90.3208 89.1629 90.3208C93.1386 90.3208 99.5609 86.2193 99.5609 78.7C99.5609 71.6364 92.6229 69.1242 85.4535 70.4141C81.0594 71.2047 82.3421 74.7313 82.3421 79.765Z" fill="#D1D5DB"/>
<path d="M85.6677 79.2564C85.6677 80.0115 85.8677 80.6236 86.8675 80.6236C87.8673 80.6236 88.0673 80.0115 88.0673 79.2564C88.0673 78.5014 87.6673 77.8893 86.8675 77.8893C86.0676 77.8893 85.6677 78.5014 85.6677 79.2564Z" fill="#F3F4F6"/>
<path d="M71.2237 87.0965C70.9764 86.7367 70.4842 86.6456 70.1244 86.893C69.7646 87.1403 69.6734 87.6325 69.9208 87.9923L71.2237 87.0965ZM76.37 85.9633L77.1176 85.7063C77.0079 85.387 76.7075 85.1727 76.37 85.1727C76.0324 85.1727 75.732 85.387 75.6223 85.7063L76.37 85.9633ZM82.8191 87.9923C83.0665 87.6325 82.9753 87.1403 82.6155 86.893C82.2557 86.6456 81.7635 86.7367 81.5162 87.0965L82.8191 87.9923ZM69.9208 87.9923C70.1585 88.3381 70.5935 88.8057 71.178 89.1922C71.7674 89.5819 72.5512 89.9162 73.4711 89.9162V88.335C72.9416 88.335 72.4571 88.1423 72.0501 87.8732C71.6381 87.6008 71.3484 87.2778 71.2237 87.0965L69.9208 87.9923ZM73.4711 89.9162C74.5853 89.9162 75.4248 89.1227 75.9588 88.4166C76.5193 87.6754 76.9165 86.8052 77.1176 86.2203L75.6223 85.7063C75.461 86.1754 75.1335 86.8864 74.6976 87.4629C74.2351 88.0744 73.8064 88.335 73.4711 88.335V89.9162ZM75.6223 86.2203C75.8234 86.8052 76.2206 87.6754 76.7811 88.4166C77.3151 89.1227 78.1546 89.9162 79.2688 89.9162V88.335C78.9335 88.335 78.5048 88.0744 78.0423 87.4629C77.6064 86.8864 77.2789 86.1754 77.1176 85.7063L75.6223 86.2203ZM79.2688 89.9162C80.1887 89.9162 80.9725 89.5819 81.5619 89.1922C82.1464 88.8057 82.5814 88.3381 82.8191 87.9923L81.5162 87.0965C81.3915 87.2778 81.1018 87.6008 80.6898 87.8732C80.2828 88.1423 79.7983 88.335 79.2688 88.335V89.9162Z" fill="#D1D5DB"/>
<path d="M81.1966 85.151C81.1966 85.8921 77.8096 86.8378 76.7348 87.1192C76.5224 87.1748 76.3009 87.1748 76.0884 87.1192C75.0136 86.8378 71.6266 85.8921 71.6266 85.151C71.6266 84.2701 74.2723 83.3281 76.4116 83.3281C78.5509 83.3281 81.1966 84.2701 81.1966 85.151Z" fill="#D1D5DB"/>
<path d="M77.1141 60.9648C56.7757 62.2435 51.8151 55.7512 51.071 53.0119L62.4804 46.6495L75.3779 44.2637L93.236 53.5421C92.1612 55.7512 89.6212 60.1784 77.1141 60.9648Z" fill="#D1D5DB"/>
<path fill-rule="evenodd" clip-rule="evenodd" d="M72.6058 110.676C98.6615 110.676 117.763 102.957 117.763 82.1934C117.763 56.2175 98.6615 36.6217 72.6058 36.6217C46.55 36.6217 27.8806 58.0404 27.8806 82.1934C27.8806 102.957 46.55 110.676 72.6058 110.676ZM71.5817 102.701C90.7477 102.701 104.798 97.0488 104.798 81.8431C104.798 62.8208 90.7477 48.4707 71.5817 48.4707C52.4156 48.4707 38.6829 64.1557 38.6829 81.8431C38.6829 97.0488 52.4156 102.701 71.5817 102.701Z" fill="#F3F4F6"/>
<path fill-rule="evenodd" clip-rule="evenodd" d="M17.2191 65.1235C20.1086 61.8881 25.3166 62.4248 27.4855 66.1815L30.6621 71.6834C32.831 75.4401 30.6918 80.2187 26.4451 81.1034L25.0639 81.3911C24.9849 81.4075 24.9058 81.4225 24.8266 81.4359C24.7968 81.518 24.759 81.5978 24.7146 81.6742C23.4569 83.8361 22.8582 88.8169 29.0549 94.5812C35.0928 100.198 40.3123 100.606 42.7149 100.007C42.8854 99.9641 43.0624 99.952 43.2332 99.9736L43.5477 99.3501C45.5013 95.477 50.6707 94.6475 53.7381 97.7149L58.2304 102.207C61.2977 105.275 60.4682 110.444 56.5952 112.398L56.3046 112.544C56.225 112.67 56.1116 112.78 55.964 112.86C48.3144 117.011 31.1182 115.005 21.712 101.924C9.93899 85.5522 11.125 71.632 15.767 66.6651C15.8462 66.5805 15.9363 66.5154 16.0327 66.4693C16.1116 66.3695 16.1938 66.2716 16.2794 66.1758L17.2191 65.1235Z" fill="#D1D5DB"/>
<path d="M108.264 35.4461C109.527 32.5757 110.649 32.0214 112.376 31.7621C113.712 31.557 114.811 31.2475 115.27 30.2037C115.729 29.1599 115.191 28.1304 114.171 27.6818C113.175 27.2435 111.937 27.5483 111.391 28.724L107.619 27.0649C109.2 23.5985 112.475 23.1701 115.583 24.537C119.022 26.05 120.783 28.8063 119.458 31.8191C118.581 33.8118 116.971 34.5759 114.964 34.8257C113.349 35.0213 112.42 35.4617 111.752 36.98L111.606 37.3121L108.118 35.7783L108.264 35.4461ZM107.511 42.0513C106.325 41.5296 105.77 40.1528 106.325 38.9534C106.813 37.7805 108.203 37.2594 109.389 37.7811C110.528 38.282 111.107 39.6692 110.619 40.842C110.063 42.0415 108.65 42.5521 107.511 42.0513Z" fill="#D1D5DB"/>
<path d="M119.826 43.5494C121.494 41.8282 122.445 41.7291 123.752 42.0027C124.764 42.2109 125.633 42.2812 126.24 41.6553C126.846 41.0294 126.734 40.1487 126.123 39.556C125.525 38.977 124.557 38.8662 123.853 39.5637L121.592 37.3721C123.646 35.3085 126.107 35.8721 127.97 37.6778C130.033 39.6765 130.562 42.1195 128.811 43.9261C127.653 45.1211 126.296 45.2405 124.792 44.886C123.583 44.5969 122.799 44.6653 121.917 45.5757L121.724 45.7748L119.633 43.7486L119.826 43.5494ZM117.53 48.0822C116.819 47.393 116.787 46.2589 117.504 45.5472C118.165 44.8363 119.3 44.8325 120.011 45.5217C120.694 46.1833 120.74 47.3312 120.079 48.042C119.362 48.7537 118.213 48.7438 117.53 48.0822Z" fill="#D1D5DB"/>
</svg>
