<svg width="282" height="282" viewBox="0 0 282 282" fill="none" xmlns="http://www.w3.org/2000/svg">
<rect width="282" height="282" fill="#F9FAFB"/>
<path d="M160.703 73.0039L176.646 73.0171L173.443 91.0835C178.958 95.1461 181.646 102.019 180.348 108.745L176.067 130.944L161.187 130.932L157.596 108.368C156.549 101.794 159.159 95.1702 164.408 91.0761L160.703 73.0039Z" fill="#E5E7EB"/>
<rect x="83.0645" y="130.867" width="115.855" height="78.1222" rx="6.37732" transform="rotate(0.0471621 83.0645 130.867)" fill="#E5E7EB"/>
<path fill-rule="evenodd" clip-rule="evenodd" d="M142.31 130.916L168.906 153.378L165.08 153.842L165.455 157.464L161.725 157.814L162.004 161.55L158.274 161.901L158.553 165.636L154.823 165.987L155.102 169.722L109.121 130.889L142.31 130.916Z" fill="#F3F4F6"/>
<path d="M137.812 163.944C138.177 165.508 136.904 167.141 135.528 167.462C134.152 167.783 132.345 166.868 131.98 165.305C131.615 163.741 132.667 161.658 134.043 161.337C135.878 160.909 137.447 162.381 137.812 163.944Z" fill="#F3F4F6"/>
<path d="M144.832 164.004C144.303 165.519 145.394 167.279 146.728 167.745C148.062 168.211 149.956 167.494 150.486 165.978C151.015 164.462 150.19 162.279 148.857 161.813C147.078 161.192 145.361 162.488 144.832 164.004Z" fill="#F3F4F6"/>
<path d="M151.422 172.907C151.177 177.488 146.613 178.952 140.51 178.626C134.408 178.3 130.126 176.363 130.371 171.782C130.656 166.454 134.238 162.379 141.358 162.759C148.478 163.139 151.728 167.176 151.422 172.907Z" fill="#F3F4F6"/>
<path d="M139.505 170.893C139.435 172.222 138.534 173.636 137.385 173.575C136.236 173.513 134.438 172.331 134.544 170.346C134.643 168.481 136.684 167.925 138.738 168.376C139.997 168.653 139.576 169.564 139.505 170.893Z" fill="#E5E7EB"/>
<path d="M137.367 170.58C137.353 170.841 137.42 171.056 137.813 171.077C138.206 171.098 138.296 170.891 138.31 170.631C138.324 170.37 138.178 170.151 137.864 170.134C137.549 170.117 137.381 170.32 137.367 170.58Z" fill="white"/>
<path d="M142.434 171.05C142.363 172.379 143.108 173.88 144.257 173.942C145.406 174.003 147.32 173.019 147.426 171.034C147.525 169.169 145.556 168.399 143.465 168.629C142.184 168.77 142.505 169.721 142.434 171.05Z" fill="#E5E7EB"/>
<path d="M144.594 170.966C144.58 171.227 144.49 171.434 144.097 171.413C143.704 171.392 143.637 171.176 143.651 170.916C143.665 170.656 143.833 170.453 144.148 170.47C144.462 170.487 144.608 170.706 144.594 170.966Z" fill="white"/>
<rect x="89.983" y="119.181" width="57.9273" height="11.6918" rx="1.06289" transform="rotate(0.0471621 89.983 119.181)" fill="#E5E7EB"/>
<rect x="86.252" y="110.682" width="52.0815" height="8.5031" rx="1.06289" transform="rotate(0.0471621 86.252 110.682)" fill="#E5E7EB"/>
<rect x="93.1606" y="102.217" width="52.0815" height="8.5031" rx="1.06289" transform="rotate(0.0471621 93.1606 102.217)" fill="#E5E7EB"/>
</svg>
